<svg xmlns="http://www.w3.org/2000/svg" width="171.455" height="59.077" viewBox="0 0 171.455 59.077"><defs><style>.a{fill:#fff;}</style></defs><g transform="translate(0.023)"><path class="a" d="M.089,2.375C-.255,1.608.221,1,1.146,1H43.359a2.679,2.679,0,0,1,2.3,1.375l5,11.181c.344.767-.132,1.375-1.057,1.375H7.358a2.679,2.679,0,0,1-2.3-1.375Z" transform="translate(0 -0.736)"/><path class="a" d="M28.889,60.275c-.344-.767.132-1.375,1.057-1.375H72.159a2.679,2.679,0,0,1,2.3,1.375l5,11.181c.344.767-.132,1.374-1.057,1.374H36.158a2.679,2.679,0,0,1-2.3-1.374Z" transform="translate(-21.187 -43.331)"/><path class="a" d="M57.489,118.475c-.344-.767.132-1.374,1.057-1.374h42.213a2.679,2.679,0,0,1,2.3,1.374l5,11.181c.344.767-.132,1.375-1.057,1.375H64.758a2.679,2.679,0,0,1-2.3-1.375Z" transform="translate(-42.228 -86.147)"/><path class="a" d="M507.228,1.375C507.572.608,507.1,0,506.171,0H463.958a2.679,2.679,0,0,0-2.3,1.375l-4.969,11.181c-.344.767.132,1.375,1.057,1.375h42.213a2.679,2.679,0,0,0,2.3-1.375Z" transform="translate(-335.908)"/><path class="a" d="M478.355,59.375C478.7,58.608,478.223,58,477.3,58H435.084a2.679,2.679,0,0,0-2.3,1.375l-5,11.181c-.344.767.132,1.375,1.057,1.375h42.213a2.679,2.679,0,0,0,2.3-1.375Z" transform="translate(-314.647 -42.669)"/><path class="a" d="M449.755,117.475c.344-.767-.132-1.374-1.057-1.374H406.484a2.679,2.679,0,0,0-2.3,1.374l-5,11.181c-.344.767.132,1.375,1.057,1.375h42.213a2.679,2.679,0,0,0,2.3-1.375Z" transform="translate(-293.607 -85.412)"/><path class="a" d="M188.788.763h29s1.242-.132,2.273,1.639a3.659,3.659,0,0,1-.211,3.621l-13.4,26.909a3.493,3.493,0,0,1-3.066,2.167c-1.956,0-3.013-2.194-3.013-2.194L186.647,5.97a4.261,4.261,0,0,1-.5-3.674A2.264,2.264,0,0,1,188.788.763Z" transform="translate(-136.786 -0.525)"/><path class="a" d="M334.288,1.163h29s1.242-.132,2.273,1.639a3.659,3.659,0,0,1-.211,3.621l-13.4,26.909a3.493,3.493,0,0,1-3.066,2.167c-1.956,0-3.013-2.194-3.013-2.194L332.147,6.37a4.261,4.261,0,0,1-.5-3.674A2.264,2.264,0,0,1,334.288,1.163Z" transform="translate(-243.826 -0.82)"/><path class="a" d="M291.231,74.036h-29s-1.242.132-2.273-1.639a3.659,3.659,0,0,1,.211-3.621l13.4-26.909A3.493,3.493,0,0,1,276.64,39.7c1.956,0,3.013,2.194,3.013,2.194l13.719,26.935a4.261,4.261,0,0,1,.5,3.674A2.271,2.271,0,0,1,291.231,74.036Z" transform="translate(-190.962 -29.206)"/><g transform="translate(23.826 48.821)"><path class="a" d="M90.2,185.2h1.057l2.8,8.749,2.749-8.749h1.4l2.7,8.8,2.828-8.8h1.057l-3.172,10.018h-1.4l-2.723-8.8-2.7,8.776H93.4Z" transform="translate(-90.2 -185.068)"/><path class="a" d="M149,185.2h7.851v1.11h-6.767v3.2h6.5v1.11h-6.5v3.489h6.82v1.11H149Z" transform="translate(-133.458 -185.068)"/><path class="a" d="M185.7,190.889l-4.6-5.789h1.454l3.674,4.652L189.9,185.1h1.454l-4.573,5.789v4.229H185.7Z" transform="translate(-157.073 -184.994)"/><path class="a" d="M224,185.2h1.084v8.908H231.3v1.11H224Z" transform="translate(-188.633 -185.068)"/><path class="a" d="M256.658,185.2h1.348l4.758,10.018h-1.216l-1-2.115H254.12l-1,2.115H251.9Zm.687,1.084-2.7,5.683h5.366Z" transform="translate(-209.158 -185.068)"/><path class="a" d="M296.7,185.2h1.612l7.322,8.8v-8.8h1.084v9.992h-1.612l-7.322-8.8v8.8H296.7Z" transform="translate(-242.116 -185.068)"/><path class="a" d="M341.5,185.2h6.476c2.7,0,3.41,1.057,3.41,5,0,3.674-.74,5-3.436,5h-6.423V185.2Zm8.776,4.52c0-2.881-.714-3.41-2.035-3.41h-5.683v7.8h5.5c1.322,0,2.22-.37,2.22-3.357Z" transform="translate(-275.075 -185.068)"/><path class="a" d="M404,188.453c0-2.538.687-3.753,2.855-3.753H411a2.21,2.21,0,0,1,2.511,2.485v.846h-.952v-.449c0-1.692-.846-1.771-1.824-1.771h-3.753c-1.031,0-1.877.4-1.877,2.141V191.7c0,1.745.846,2.141,1.877,2.141h3.78c1.454,0,1.877-.4,1.877-1.745v-.634h1v.687c0,1.8-.476,2.8-2.7,2.8h-4.1c-2.168,0-2.855-1.216-2.855-3.753Z" transform="translate(-321.054 -184.7)"/><path class="a" d="M445.6,188.453c0-2.538.687-3.753,2.855-3.753h4.6c2.167,0,2.855,1.216,2.855,3.753V191.2c0,2.538-.687,3.753-2.855,3.753h-4.6c-2.168,0-2.855-1.216-2.855-3.753Zm9.251-.5c0-1.745-.846-2.141-1.877-2.141h-4.388c-1.031,0-1.877.4-1.877,2.141V191.7c0,1.745.846,2.141,1.877,2.141h4.388c1.031,0,1.877-.4,1.877-2.141Z" transform="translate(-351.658 -184.7)"/><path class="a" d="M490.9,185.2h6.4c2.3,0,2.67.952,2.67,2.828v.819c0,1.4-.634,1.8-1.48,1.9v.026a1.642,1.642,0,0,1,1.375,1.877v2.564h-1v-2.194c0-1.56-.608-1.745-1.586-1.745h-5.287v3.965H490.9Zm6.291,4.943c1.216,0,1.718-.4,1.718-1.454v-.925c0-1.11-.4-1.48-1.982-1.48h-4.943v3.833h5.207Z" transform="translate(-384.984 -185.068)"/><path class="a" d="M531.8,185.2h6.582c1.454,0,2.3.4,2.3,2.723,0,2.22-.132,3.357-2.511,3.357h-5.287v3.912H531.8Zm7.771,2.564c0-1.189-.529-1.48-1.454-1.48h-5.26v3.859H538.2c.872,0,1.375-.4,1.375-1.427Z" transform="translate(-415.073 -185.068)"/></g></g></svg>