<svg xmlns="http://www.w3.org/2000/svg" width="27.802" height="27.802" viewBox="0 0 27.802 27.802"><defs><style>.a{fill:#fff;}</style></defs><g transform="translate(0 0)"><g transform="translate(0 0)"><g transform="translate(0 0)"><path class="a" d="M45.822,87.557l-1.3-1.156a13.891,13.891,0,0,0-1.129,1.467l1.442.969A12.185,12.185,0,0,1,45.822,87.557Z" transform="translate(-41.037 -81.709)"/><path class="a" d="M90.77,43.389l-.956-1.452a14.093,14.093,0,0,0-1.477,1.117l1.139,1.312A12.317,12.317,0,0,1,90.77,43.389Z" transform="translate(-83.54 -39.66)"/><path class="a" d="M13.9,0A13.771,13.771,0,0,0,7.885,1.366L8.639,2.93A12.036,12.036,0,0,1,13.9,1.738,12.163,12.163,0,1,1,1.738,13.9,12.029,12.029,0,0,1,2.984,8.534L1.426,7.766A13.747,13.747,0,0,0,0,13.9,13.9,13.9,0,1,0,13.9,0Z" transform="translate(0 0)"/><path class="a" d="M160,131.745v13.494l11.245-6.747Zm1.738,3.069,6.131,3.679-6.131,3.679Z" transform="translate(-151.313 -124.591)"/></g></g></g></svg>